<svg width="28" height="28" viewBox="0 0 28 28" fill="none" xmlns="http://www.w3.org/2000/svg">
<path d="M18.1996 13.9996C18.1996 15.1135 17.7571 16.1818 16.9694 16.9694C16.1818 17.7571 15.1135 18.1996 13.9996 18.1996C12.8857 18.1996 11.8174 17.7571 11.0297 16.9694C10.2421 16.1818 9.79957 15.1135 9.79957 13.9996C9.79957 13.7602 9.82477 13.5264 9.86817 13.2996H8.39957V18.8954C8.39957 19.2846 8.71457 19.5996 9.10377 19.5996H18.8968C19.0833 19.5992 19.2621 19.5248 19.3938 19.3928C19.5256 19.2608 19.5996 19.0819 19.5996 18.8954V13.2996H18.131C18.1744 13.5264 18.1996 13.7602 18.1996 13.9996ZM13.9996 16.7996C14.3674 16.7995 14.7315 16.7269 15.0713 16.5861C15.4111 16.4453 15.7198 16.2389 15.9798 15.9788C16.2398 15.7186 16.446 15.4098 16.5866 15.07C16.7273 14.7302 16.7997 14.366 16.7996 13.9982C16.7995 13.6304 16.7269 13.2662 16.5861 12.9264C16.4453 12.5867 16.2389 12.278 15.9788 12.018C15.7186 11.758 15.4098 11.5518 15.07 11.4111C14.7302 11.2704 14.366 11.1981 13.9982 11.1982C13.2554 11.1984 12.5431 11.4936 12.018 12.019C11.4929 12.5443 11.198 13.2568 11.1982 13.9996C11.1984 14.7424 11.4936 15.4547 12.019 15.9798C12.5443 16.5049 13.2568 16.7998 13.9996 16.7996ZM17.3596 11.0596H19.0382C19.1497 11.0596 19.2567 11.0154 19.3357 10.9366C19.4146 10.8579 19.4592 10.7511 19.4596 10.6396V8.96097C19.4596 8.84921 19.4152 8.74202 19.3361 8.663C19.2571 8.58397 19.1499 8.53957 19.0382 8.53957H17.3596C17.2478 8.53957 17.1406 8.58397 17.0616 8.663C16.9826 8.74202 16.9382 8.84921 16.9382 8.96097V10.6396C16.9396 10.8706 17.1286 11.0596 17.3596 11.0596ZM13.9996 0.55957C10.4351 0.55957 7.01654 1.97557 4.49605 4.49605C1.97557 7.01654 0.55957 10.4351 0.55957 13.9996C0.55957 17.5641 1.97557 20.9826 4.49605 23.5031C7.01654 26.0236 10.4351 27.4396 13.9996 27.4396C15.7645 27.4396 17.5122 27.0919 19.1428 26.4165C20.7735 25.7411 22.2551 24.7511 23.5031 23.5031C24.7511 22.2551 25.7411 20.7735 26.4165 19.1428C27.0919 17.5122 27.4396 15.7645 27.4396 13.9996C27.4396 12.2346 27.0919 10.4869 26.4165 8.85631C25.7411 7.22569 24.7511 5.74407 23.5031 4.49605C22.2551 3.24804 20.7735 2.25805 19.1428 1.58263C17.5122 0.907206 15.7645 0.55957 13.9996 0.55957ZM20.9996 19.4442C20.9996 20.2996 20.2996 20.9996 19.4442 20.9996H8.55497C7.69957 20.9996 6.99957 20.2996 6.99957 19.4442V8.55497C6.99957 7.69957 7.69957 6.99957 8.55497 6.99957H19.4442C20.2996 6.99957 20.9996 7.69957 20.9996 8.55497V19.4442Z" fill="#EA3E8E"/>
</svg>
