<svg width="28" height="28" viewBox="0 0 28 28" fill="none" xmlns="http://www.w3.org/2000/svg">
<path d="M14 0C6.26792 0 0 6.26792 0 14C0 21.7321 6.26792 28 14 28C21.7321 28 28 21.7321 28 14C28 6.26792 21.7321 0 14 0ZM10.5729 19.8027H7.73792V10.6794H10.5729V19.8027ZM9.13792 9.55937C8.2425 9.55937 7.66354 8.925 7.66354 8.14042C7.66354 7.33979 8.26 6.72437 9.17437 6.72437C10.0887 6.72437 10.6487 7.33979 10.6662 8.14042C10.6662 8.925 10.0887 9.55937 9.13792 9.55937ZM20.9271 19.8027H18.0921V14.7467C18.0921 13.5698 17.6808 12.7706 16.6556 12.7706C15.8725 12.7706 15.4073 13.3117 15.2017 13.8323C15.1258 14.0175 15.1069 14.28 15.1069 14.541V19.8012H12.2704V13.5888C12.2704 12.4498 12.234 11.4975 12.196 10.6779H14.6592L14.789 11.9452H14.8458C15.2192 11.3502 16.1335 10.4723 17.6633 10.4723C19.5285 10.4723 20.9271 11.7221 20.9271 14.4083V19.8027Z" fill="#2A66BC"/>
</svg>
